<svg width="348" height="348" viewBox="0 0 348 348" fill="none" xmlns="http://www.w3.org/2000/svg">
<g filter="url(#filter0_di_3294_13156)">
<mask id="mask0_3294_13156" style="mask-type:luminance" maskUnits="userSpaceOnUse" x="24" y="16" width="300" height="300">
<path d="M310.667 16H37.3333C29.9695 16 24 24.4942 24 34.9724V297.028C24 307.506 29.9695 316 37.3333 316H310.667C318.03 316 324 307.506 324 297.028V34.9724C324 24.4942 318.03 16 310.667 16Z" fill="white"/>
</mask>
<g mask="url(#mask0_3294_13156)">
<path d="M23.6719 35.1677C23.6719 24.6896 29.6414 16.1953 37.0052 16.1953H310.338C317.703 16.1953 323.672 24.6896 323.672 35.1677V297.223C323.672 307.702 317.703 316.196 310.338 316.196H37.0052C29.6414 316.196 23.6719 307.702 23.6719 297.223V35.1677Z" fill="white" fill-opacity="0.04"/>
</g>
</g>
<g filter="url(#filter1_di_3294_13156)">
<mask id="mask1_3294_13156" style="mask-type:luminance" maskUnits="userSpaceOnUse" x="37" y="30" width="273" height="273">
<path d="M297.684 30.1758H49.1993C42.505 30.1758 37.0781 37.8978 37.0781 47.4234V285.655C37.0781 295.181 42.505 302.903 49.1993 302.903H297.684C304.379 302.903 309.805 295.181 309.805 285.655V47.4234C309.805 37.8978 304.379 30.1758 297.684 30.1758Z" fill="white"/>
</mask>
<g mask="url(#mask1_3294_13156)">
<path d="M36.7812 47.6031C36.7812 38.0775 42.2081 30.3555 48.9025 30.3555H297.387C304.082 30.3555 309.508 38.0775 309.508 47.6031V285.835C309.508 295.361 304.082 303.083 297.387 303.083H48.9025C42.2081 303.083 36.7812 295.361 36.7812 285.835V47.6031Z" fill="white" fill-opacity="0.04"/>
<g filter="url(#filter2_f_3294_13156)">
<path d="M78.4463 185.581C118.194 185.581 150.416 139.731 150.416 83.1732C150.416 26.6151 118.194 -19.2344 78.4463 -19.2344C38.6985 -19.2344 6.47656 26.6151 6.47656 83.1732C6.47656 139.731 38.6985 185.581 78.4463 185.581Z" fill="white" fill-opacity="0.15"/>
</g>
<g filter="url(#filter3_f_3294_13156)">
<path d="M293.599 385.008C325.397 385.008 351.175 348.329 351.175 303.082C351.175 257.836 325.397 221.156 293.599 221.156C261.801 221.156 236.023 257.836 236.023 303.082C236.023 348.329 261.801 385.008 293.599 385.008Z" fill="white" fill-opacity="0.15"/>
</g>
</g>
</g>
<path d="M257.117 71.3628C258.204 68.181 262.601 68.0847 263.89 71.0737L263.999 71.3647L265.466 75.6556C265.802 76.6396 266.346 77.5401 267.06 78.2963C267.773 79.0525 268.641 79.6469 269.604 80.0392L269.999 80.1865L274.29 81.6519C277.472 82.7392 277.568 87.1356 274.581 88.4247L274.29 88.5337L269.999 90.001C269.014 90.3371 268.114 90.8803 267.357 91.5942C266.6 92.3081 266.006 93.1759 265.613 94.1392L265.466 94.5319L264.001 98.8247C262.913 102.006 258.517 102.103 257.23 99.1156L257.117 98.8247L255.652 94.5337C255.315 93.5494 254.772 92.6485 254.058 91.892C253.344 91.1354 252.477 90.5408 251.513 90.1483L251.121 90.001L246.83 88.5356C243.646 87.4483 243.55 83.0519 246.539 81.7647L246.83 81.6519L251.121 80.1865C252.105 79.8502 253.005 79.3068 253.761 78.593C254.518 77.8791 255.112 77.0114 255.504 76.0483L255.652 75.6556L257.117 71.3628ZM275.104 65.0938C275.444 65.0937 275.778 65.1892 276.066 65.3692C276.355 65.5491 276.587 65.8065 276.737 66.1119L276.824 66.3247L277.461 68.1901L279.328 68.8265C279.669 68.9423 279.968 69.1567 280.186 69.4425C280.405 69.7283 280.534 70.0727 280.557 70.432C280.58 70.7912 280.496 71.1493 280.316 71.4606C280.135 71.772 279.866 72.0227 279.542 72.181L279.328 72.2683L277.462 72.9047L276.826 74.7719C276.71 75.1127 276.495 75.4114 276.21 75.6301C275.924 75.8488 275.579 75.9777 275.22 76.0005C274.861 76.0233 274.503 75.9389 274.191 75.7581C273.88 75.5772 273.63 75.3081 273.472 74.9847L273.384 74.7719L272.748 72.9065L270.881 72.2701C270.54 72.1543 270.241 71.9399 270.022 71.6541C269.803 71.3683 269.674 71.0239 269.651 70.6646C269.628 70.3053 269.712 69.9473 269.893 69.636C270.074 69.3246 270.343 69.0739 270.666 68.9156L270.881 68.8283L272.746 68.1919L273.382 66.3247C273.505 65.9654 273.737 65.6536 274.046 65.4328C274.355 65.2121 274.725 65.0935 275.104 65.0938Z" fill="white" fill-opacity="0.5"/>
<path d="M255.285 157.458V139.276H237.103V121.094C237.089 116.276 235.168 111.66 231.762 108.254C228.355 104.847 223.739 102.927 218.921 102.912H200.739V84.7305H182.558V102.912H164.376V84.7305H146.194V102.912H128.012C123.194 102.927 118.578 104.847 115.171 108.254C111.765 111.66 109.845 116.276 109.83 121.094V139.276H91.6484V157.458H109.83V175.64H91.6484V193.821H109.83V212.003C109.845 216.821 111.765 221.437 115.171 224.844C118.578 228.25 123.194 230.171 128.012 230.185H146.194V248.367H164.376V230.185H182.558V248.367H200.739V230.185H218.921C223.739 230.171 228.355 228.25 231.762 224.844C235.168 221.437 237.089 216.821 237.103 212.003V193.821H255.285V175.64H237.103V157.458H255.285ZM218.921 212.003H128.012V121.094H218.921V212.003Z" fill="#0075FF" fill-opacity="0.5"/>
<path d="M172.3 182.526H154.008L151.075 191.184H138.578L156.312 142.171H170.136L187.87 191.184H175.233L172.3 182.526ZM169.228 173.31L163.154 155.367L157.15 173.31H169.228ZM205.206 142.171V191.184H193.267V142.171H205.206Z" fill="#0075FF" fill-opacity="0.5"/>
<defs>
<filter id="filter0_di_3294_13156" x="0.0113449" y="0.202847" width="347.649" height="347.782" filterUnits="userSpaceOnUse" color-interpolation-filters="sRGB">
<feFlood flood-opacity="0" result="BackgroundImageFix"/>
<feColorMatrix in="SourceAlpha" type="matrix" values="0 0 0 0 0 0 0 0 0 0 0 0 0 0 0 0 0 0 127 0" result="hardAlpha"/>
<feOffset dy="7.99619"/>
<feGaussianBlur stdDeviation="11.9943"/>
<feComposite in2="hardAlpha" operator="out"/>
<feColorMatrix type="matrix" values="0 0 0 0 0 0 0 0 0 0 0 0 0 0 0 0 0 0 0.5 0"/>
<feBlend mode="normal" in2="BackgroundImageFix" result="effect1_dropShadow_3294_13156"/>
<feBlend mode="normal" in="SourceGraphic" in2="effect1_dropShadow_3294_13156" result="shape"/>
<feColorMatrix in="SourceAlpha" type="matrix" values="0 0 0 0 0 0 0 0 0 0 0 0 0 0 0 0 0 0 127 0" result="hardAlpha"/>
<feOffset/>
<feGaussianBlur stdDeviation="11.9943"/>
<feComposite in2="hardAlpha" operator="arithmetic" k2="-1" k3="1"/>
<feColorMatrix type="matrix" values="0 0 0 0 1 0 0 0 0 1 0 0 0 0 1 0 0 0 0.15 0"/>
<feBlend mode="normal" in2="shape" result="effect2_innerShadow_3294_13156"/>
</filter>
<filter id="filter1_di_3294_13156" x="13.0895" y="14.1833" width="320.704" height="320.704" filterUnits="userSpaceOnUse" color-interpolation-filters="sRGB">
<feFlood flood-opacity="0" result="BackgroundImageFix"/>
<feColorMatrix in="SourceAlpha" type="matrix" values="0 0 0 0 0 0 0 0 0 0 0 0 0 0 0 0 0 0 127 0" result="hardAlpha"/>
<feOffset dy="7.99619"/>
<feGaussianBlur stdDeviation="11.9943"/>
<feComposite in2="hardAlpha" operator="out"/>
<feColorMatrix type="matrix" values="0 0 0 0 0 0 0 0 0 0 0 0 0 0 0 0 0 0 0.5 0"/>
<feBlend mode="normal" in2="BackgroundImageFix" result="effect1_dropShadow_3294_13156"/>
<feBlend mode="normal" in="SourceGraphic" in2="effect1_dropShadow_3294_13156" result="shape"/>
<feColorMatrix in="SourceAlpha" type="matrix" values="0 0 0 0 0 0 0 0 0 0 0 0 0 0 0 0 0 0 127 0" result="hardAlpha"/>
<feOffset/>
<feGaussianBlur stdDeviation="11.9943"/>
<feComposite in2="hardAlpha" operator="arithmetic" k2="-1" k3="1"/>
<feColorMatrix type="matrix" values="0 0 0 0 1 0 0 0 0 1 0 0 0 0 1 0 0 0 0.15 0"/>
<feBlend mode="normal" in2="shape" result="effect2_innerShadow_3294_13156"/>
</filter>
<filter id="filter2_f_3294_13156" x="-93.4758" y="-119.187" width="343.842" height="404.721" filterUnits="userSpaceOnUse" color-interpolation-filters="sRGB">
<feFlood flood-opacity="0" result="BackgroundImageFix"/>
<feBlend mode="normal" in="SourceGraphic" in2="BackgroundImageFix" result="shape"/>
<feGaussianBlur stdDeviation="49.9762" result="effect1_foregroundBlur_3294_13156"/>
</filter>
<filter id="filter3_f_3294_13156" x="136.071" y="121.204" width="315.053" height="363.756" filterUnits="userSpaceOnUse" color-interpolation-filters="sRGB">
<feFlood flood-opacity="0" result="BackgroundImageFix"/>
<feBlend mode="normal" in="SourceGraphic" in2="BackgroundImageFix" result="shape"/>
<feGaussianBlur stdDeviation="49.9762" result="effect1_foregroundBlur_3294_13156"/>
</filter>
</defs>
</svg>
