<svg width="387" height="310" viewBox="0 0 387 310" fill="none" xmlns="http://www.w3.org/2000/svg">
<g clip-path="url(#clip0_3236_12679)">
<path d="M12 19.2816C12 9.16121 20.2042 0.957031 30.3246 0.957031H343.675C353.796 0.957031 362 9.16123 362 19.2816V264.832H12V19.2816Z" fill="#161616"/>
<mask id="mask0_3236_12679" style="mask-type:luminance" maskUnits="userSpaceOnUse" x="12" y="0" width="350" height="265">
<path d="M12 19.2816C12 9.16121 20.2042 0.957031 30.3246 0.957031H343.675C353.796 0.957031 362 9.16123 362 19.2816V264.832H12V19.2816Z" fill="white"/>
</mask>
<g mask="url(#mask0_3236_12679)">
<path d="M11.0859 19.2799C11.0859 8.65348 19.7003 0.0390625 30.3267 0.0390625H343.677C354.304 0.0390625 362.918 8.65348 362.918 19.2799H361.086C361.086 9.66552 353.292 1.87152 343.677 1.87152H30.3267C20.7123 1.87152 12.9183 9.66552 12.9183 19.2799H11.0859ZM11.0859 264.83V19.2799C11.0859 8.65348 19.7003 0.0390625 30.3267 0.0390625V1.87152C20.7123 1.87152 12.9183 9.66552 12.9183 19.2799V264.83H11.0859ZM343.677 0.0390625C354.304 0.0390625 362.918 8.65348 362.918 19.2799V264.83H361.086V19.2799C361.086 9.66552 353.292 1.87152 343.677 1.87152V0.0390625Z" fill="url(#paint0_linear_3236_12679)"/>
</g>
<g filter="url(#filter0_di_3236_12679)">
<mask id="mask1_3236_12679" style="mask-type:luminance" maskUnits="userSpaceOnUse" x="22" y="33" width="330" height="232">
<path d="M337.261 33.0273H36.7378C28.6415 33.0273 22.0781 39.5907 22.0781 47.687V250.174C22.0781 258.27 28.6415 264.833 36.7378 264.833H337.261C345.358 264.833 351.921 258.27 351.921 250.174V47.687C351.921 39.5907 345.358 33.0273 337.261 33.0273Z" fill="white"/>
</mask>
<g mask="url(#mask1_3236_12679)">
<path d="M22.0781 47.687C22.0781 39.5907 28.6415 33.0273 36.7378 33.0273H337.261C345.358 33.0273 351.921 39.5907 351.921 47.687V250.174C351.921 258.271 345.358 264.834 337.261 264.834H36.7378C28.6415 264.834 22.0781 258.271 22.0781 250.174V47.687Z" fill="white" fill-opacity="0.04"/>
<mask id="mask2_3236_12679" style="mask-type:luminance" maskUnits="userSpaceOnUse" x="22" y="33" width="330" height="232">
<path d="M22.0781 47.687C22.0781 39.5907 28.6415 33.0273 36.7378 33.0273H337.261C345.358 33.0273 351.921 39.5907 351.921 47.687V250.174C351.921 258.271 345.358 264.834 337.261 264.834H36.7378C28.6415 264.834 22.0781 258.271 22.0781 250.174V47.687Z" fill="white"/>
</mask>
<g mask="url(#mask2_3236_12679)">
<path d="M36.74 33.9419H337.263V32.1094H36.74V33.9419ZM351.007 47.6853V250.172H352.839V47.6853H351.007ZM337.263 263.916H36.74V265.748H337.263V263.916ZM22.9966 250.172V47.6853H21.1641V250.172H22.9966ZM36.74 263.916C29.1497 263.916 22.9966 257.763 22.9966 250.172H21.1641C21.1641 258.775 28.1377 265.748 36.74 265.748V263.916ZM351.007 250.172C351.007 257.763 344.854 263.916 337.263 263.916V265.748C345.866 265.748 352.839 258.775 352.839 250.172H351.007ZM337.263 33.9419C344.854 33.9419 351.007 40.095 351.007 47.6853H352.839C352.839 39.083 345.866 32.1094 337.263 32.1094V33.9419ZM36.74 32.1094C28.1377 32.1094 21.1641 39.083 21.1641 47.6853H22.9966C22.9966 40.095 29.1497 33.9419 36.74 33.9419V32.1094Z" fill="url(#paint1_linear_3236_12679)"/>
</g>
<g filter="url(#filter1_f_3236_12679)">
<path d="M72.4716 164.963C120.544 164.963 159.513 125.993 159.513 77.9208C159.513 29.8489 120.544 -9.12109 72.4716 -9.12109C24.3997 -9.12109 -14.5703 29.8489 -14.5703 77.9208C-14.5703 125.993 24.3997 164.963 72.4716 164.963Z" fill="white" fill-opacity="0.15"/>
</g>
<g filter="url(#filter2_f_3236_12679)">
<path d="M332.68 334.466C371.138 334.466 402.314 303.29 402.314 264.833C402.314 226.375 371.138 195.199 332.68 195.199C294.223 195.199 263.047 226.375 263.047 264.833C263.047 303.29 294.223 334.466 332.68 334.466Z" fill="white" fill-opacity="0.15"/>
</g>
<g filter="url(#filter3_di_3236_12679)">
<path d="M175.088 129.23H45.9002C41.852 129.23 38.5703 132.512 38.5703 136.56V237.346C38.5703 241.394 41.852 244.675 45.9002 244.675H175.088C179.137 244.675 182.418 241.394 182.418 237.346V136.56C182.418 132.512 179.137 129.23 175.088 129.23Z" fill="#D9D9D9" fill-opacity="0.1"/>
</g>
<path d="M54.1484 207.107V231.845C54.1484 233.363 55.3791 234.594 56.8971 234.594C58.4152 234.594 59.6458 233.363 59.6458 231.845V207.107C59.6458 205.589 58.4152 204.358 56.8971 204.358C55.3791 204.358 54.1484 205.589 54.1484 207.107Z" fill="white" fill-opacity="0.1"/>
<path d="M66.0547 192.447V231.845C66.0547 233.363 67.2853 234.594 68.8034 234.594C70.3214 234.594 71.5521 233.363 71.5521 231.845V192.447C71.5521 190.929 70.3214 189.698 68.8034 189.698C67.2853 189.698 66.0547 190.929 66.0547 192.447Z" fill="white" fill-opacity="0.1"/>
<path d="M77.9688 192.447V231.845C77.9688 233.363 79.1994 234.594 80.7174 234.594C82.2355 234.594 83.4661 233.363 83.4661 231.845V192.447C83.4661 190.929 82.2355 189.698 80.7174 189.698C79.1994 189.698 77.9688 190.929 77.9688 192.447Z" fill="white" fill-opacity="0.1"/>
<path d="M89.8828 207.107V231.845C89.8828 233.363 91.1134 234.594 92.6315 234.594C94.1496 234.594 95.3802 233.363 95.3802 231.845V207.107C95.3802 205.589 94.1496 204.358 92.6315 204.358C91.1134 204.358 89.8828 205.589 89.8828 207.107Z" fill="white" fill-opacity="0.1"/>
<path d="M101.797 192.447V231.845C101.797 233.363 103.028 234.594 104.546 234.594C106.064 234.594 107.294 233.363 107.294 231.845V192.447C107.294 190.929 106.064 189.698 104.546 189.698C103.028 189.698 101.797 190.929 101.797 192.447Z" fill="white" fill-opacity="0.1"/>
<path d="M113.703 176.871V231.845C113.703 233.363 114.934 234.594 116.452 234.594C117.97 234.594 119.201 233.363 119.201 231.845V176.871C119.201 175.353 117.97 174.123 116.452 174.123C114.934 174.123 113.703 175.353 113.703 176.871Z" fill="white" fill-opacity="0.1"/>
<path d="M125.617 176.871V231.845C125.617 233.363 126.848 234.594 128.366 234.594C129.884 234.594 131.115 233.363 131.115 231.845V176.871C131.115 175.353 129.884 174.123 128.366 174.123C126.848 174.123 125.617 175.353 125.617 176.871Z" fill="white" fill-opacity="0.1"/>
<path d="M137.523 164.044V231.845C137.523 233.363 138.754 234.594 140.272 234.594C141.79 234.594 143.021 233.363 143.021 231.845V164.044C143.021 162.526 141.79 161.295 140.272 161.295C138.754 161.295 137.523 162.526 137.523 164.044Z" fill="white" fill-opacity="0.1"/>
<path d="M149.438 164.044V231.845C149.438 233.363 150.668 234.594 152.186 234.594C153.704 234.594 154.935 233.363 154.935 231.845V164.044C154.935 162.526 153.704 161.295 152.186 161.295C150.668 161.295 149.438 162.526 149.438 164.044Z" fill="white" fill-opacity="0.1"/>
<path d="M161.352 164.044V231.845C161.352 233.363 162.582 234.594 164.1 234.594C165.618 234.594 166.849 233.363 166.849 231.845V164.044C166.849 162.526 165.618 161.295 164.1 161.295C162.582 161.295 161.352 162.526 161.352 164.044Z" fill="white" fill-opacity="0.1"/>
<g filter="url(#filter4_di_3236_12679)">
<path d="M326.268 129.23H197.08C193.032 129.23 189.75 132.512 189.75 136.56V237.346C189.75 241.394 193.032 244.675 197.08 244.675H326.268C330.316 244.675 333.598 241.394 333.598 237.346V136.56C333.598 132.512 330.316 129.23 326.268 129.23Z" fill="#D9D9D9" fill-opacity="0.1"/>
</g>
<path d="M319.856 227.266H204.411C203.399 227.266 202.578 228.086 202.578 229.098C202.578 230.11 203.399 230.931 204.411 230.931H319.856C320.868 230.931 321.688 230.11 321.688 229.098C321.688 228.086 320.868 227.266 319.856 227.266Z" fill="white" fill-opacity="0.1"/>
<path d="M202.578 160.842V229.559C202.578 230.318 203.193 230.934 203.952 230.934C204.711 230.934 205.327 230.318 205.327 229.559V160.842C205.327 160.083 204.711 159.468 203.952 159.468C203.193 159.468 202.578 160.083 202.578 160.842Z" fill="white" fill-opacity="0.1"/>
<g filter="url(#filter5_di_3236_12679)">
<path d="M326.268 49.5195H197.08C193.032 49.5195 189.75 52.8012 189.75 56.8494V110.907C189.75 114.955 193.032 118.237 197.08 118.237H326.268C330.316 118.237 333.598 114.955 333.598 110.907V56.8494C333.598 52.8012 330.316 49.5195 326.268 49.5195Z" fill="#D9D9D9" fill-opacity="0.1"/>
</g>
<g filter="url(#filter6_di_3236_12679)">
<path d="M175.088 49.5195H45.9002C41.852 49.5195 38.5703 52.8012 38.5703 56.8494V110.907C38.5703 114.955 41.852 118.237 45.9002 118.237H175.088C179.137 118.237 182.418 114.955 182.418 110.907V56.8494C182.418 52.8012 179.137 49.5195 175.088 49.5195Z" fill="#D9D9D9" fill-opacity="0.1"/>
</g>
<path d="M319.852 101.742H219.067C218.055 101.742 217.234 102.563 217.234 103.575C217.234 104.587 218.055 105.407 219.067 105.407H319.852C320.864 105.407 321.684 104.587 321.684 103.575C321.684 102.563 320.864 101.742 319.852 101.742Z" fill="white" fill-opacity="0.1"/>
<path d="M319.853 89.832H264.879C263.867 89.832 263.047 90.6525 263.047 91.6645C263.047 92.6765 263.867 93.4969 264.879 93.4969H319.853C320.865 93.4969 321.686 92.6765 321.686 91.6645C321.686 90.6525 320.865 89.832 319.853 89.832Z" fill="white" fill-opacity="0.1"/>
<path d="M319.849 77.918H207.153C206.141 77.918 205.32 78.7384 205.32 79.7504C205.32 80.7625 206.141 81.5829 207.153 81.5829H319.849C320.861 81.5829 321.681 80.7625 321.681 79.7504C321.681 78.7384 320.861 77.918 319.849 77.918Z" fill="white" fill-opacity="0.1"/>
<path d="M319.85 66.0117H230.059C229.047 66.0117 228.227 66.8321 228.227 67.8442C228.227 68.8562 229.047 69.6766 230.059 69.6766H319.85C320.862 69.6766 321.682 68.8562 321.682 67.8442C321.682 66.8321 320.862 66.0117 319.85 66.0117Z" fill="white" fill-opacity="0.1"/>
</g>
</g>
<path d="M222.734 205.28L249.916 167.715L283.511 194.418L308.86 167.715" stroke="#626262" stroke-width="1.83246" stroke-dasharray="5.5 5.5"/>
<path d="M32.1549 22.9466C33.673 22.9466 34.9036 21.716 34.9036 20.1979C34.9036 18.6798 33.673 17.4492 32.1549 17.4492C30.6369 17.4492 29.4062 18.6798 29.4062 20.1979C29.4062 21.716 30.6369 22.9466 32.1549 22.9466Z" fill="#D9D9D9"/>
<path d="M45.8971 22.9466C47.4152 22.9466 48.6458 21.716 48.6458 20.1979C48.6458 18.6798 47.4152 17.4492 45.8971 17.4492C44.3791 17.4492 43.1484 18.6798 43.1484 20.1979C43.1484 21.716 44.3791 22.9466 45.8971 22.9466Z" fill="#D9D9D9"/>
<path d="M59.6393 22.9466C61.1574 22.9466 62.388 21.716 62.388 20.1979C62.388 18.6798 61.1574 17.4492 59.6393 17.4492C58.1213 17.4492 56.8906 18.6798 56.8906 20.1979C56.8906 21.716 58.1213 22.9466 59.6393 22.9466Z" fill="#D9D9D9"/>
<mask id="mask3_3236_12679" style="mask-type:luminance" maskUnits="userSpaceOnUse" x="274" y="186" width="125" height="124">
<path d="M398.652 186.035H274.961V309.726H398.652V186.035Z" fill="white"/>
</mask>
<g mask="url(#mask3_3236_12679)">
<g filter="url(#filter7_di_3236_12679)">
<path d="M359.993 298.131C359.993 299.156 359.586 300.139 358.861 300.864C358.136 301.589 357.153 301.996 356.127 301.996H317.474C316.449 301.996 315.466 301.589 314.741 300.864C314.016 300.139 313.609 299.156 313.609 298.131C313.609 297.106 314.016 296.123 314.741 295.398C315.466 294.673 316.449 294.266 317.474 294.266H356.127C357.153 294.266 358.136 294.673 358.861 295.398C359.586 296.123 359.993 297.106 359.993 298.131ZM379.319 236.285C379.336 242.729 377.88 249.091 375.064 254.887C372.247 260.682 368.143 265.758 363.066 269.725C362.116 270.453 361.346 271.388 360.813 272.459C360.281 273.53 360 274.709 359.993 275.905V278.804C359.993 280.854 359.178 282.821 357.728 284.271C356.279 285.72 354.312 286.535 352.262 286.535H321.339C319.289 286.535 317.323 285.72 315.873 284.271C314.423 282.821 313.609 280.854 313.609 278.804V275.905C313.608 274.723 313.336 273.557 312.814 272.497C312.292 271.437 311.534 270.51 310.598 269.788C305.534 265.844 301.433 260.799 298.606 255.036C295.779 249.272 294.3 242.941 294.282 236.522C294.156 213.494 312.768 194.317 335.776 193.766C341.446 193.63 347.085 194.629 352.362 196.704C357.64 198.78 362.449 201.89 366.506 205.852C370.563 209.814 373.787 214.547 375.988 219.774C378.188 225 379.321 230.614 379.319 236.285ZM363.805 231.773C362.803 226.174 360.109 221.017 356.087 216.996C352.065 212.975 346.907 210.282 341.309 209.281C340.808 209.197 340.296 209.212 339.801 209.325C339.306 209.439 338.838 209.649 338.425 209.943C338.011 210.238 337.659 210.61 337.39 211.041C337.12 211.471 336.938 211.95 336.854 212.451C336.769 212.951 336.784 213.464 336.898 213.958C337.012 214.453 337.222 214.921 337.516 215.334C337.81 215.748 338.183 216.1 338.613 216.369C339.044 216.639 339.523 216.821 340.023 216.905C348.029 218.253 354.823 225.047 356.181 233.067C356.333 233.968 356.8 234.785 357.498 235.374C358.196 235.963 359.08 236.286 359.993 236.285C360.211 236.284 360.429 236.266 360.645 236.232C361.655 236.06 362.556 235.493 363.148 234.657C363.741 233.82 363.977 232.783 363.805 231.773Z" fill="#1A8EF7" fill-opacity="0.28"/>
<path d="M378.864 236.284V236.285C378.881 242.659 377.441 248.953 374.655 254.686C371.868 260.418 367.81 265.438 362.788 269.362C361.784 270.132 360.969 271.121 360.406 272.254C359.842 273.388 359.545 274.635 359.538 275.901V275.904V278.803C359.538 280.732 358.771 282.582 357.408 283.946C356.044 285.309 354.194 286.076 352.265 286.076H321.342C319.413 286.076 317.564 285.309 316.2 283.946C314.836 282.582 314.07 280.732 314.07 278.803V275.904C314.069 274.652 313.781 273.417 313.228 272.294C312.676 271.171 311.873 270.189 310.882 269.425C305.873 265.524 301.816 260.534 299.02 254.833C296.224 249.132 294.761 242.87 294.743 236.52V236.519C294.619 213.74 313.032 194.768 335.79 194.223C341.399 194.088 346.977 195.076 352.198 197.13C357.418 199.183 362.175 202.259 366.189 206.179C370.203 210.098 373.392 214.78 375.569 219.951C377.745 225.121 378.866 230.674 378.864 236.284ZM364.26 231.695L364.259 231.691C363.24 226 360.502 220.758 356.414 216.671C352.326 212.583 347.083 209.847 341.392 208.829L341.388 208.828C340.828 208.734 340.255 208.751 339.701 208.878C339.148 209.005 338.625 209.24 338.162 209.569C337.699 209.898 337.306 210.315 337.005 210.796C336.703 211.278 336.499 211.814 336.405 212.373C336.311 212.933 336.327 213.506 336.455 214.06C336.582 214.613 336.816 215.136 337.146 215.599C337.475 216.062 337.892 216.455 338.373 216.757C338.854 217.058 339.39 217.262 339.95 217.356C347.764 218.672 354.407 225.314 355.732 233.143C355.903 234.15 356.425 235.064 357.206 235.723C357.986 236.382 358.975 236.743 359.996 236.742H359.998C360.24 236.741 360.481 236.721 360.719 236.684L360.725 236.683C361.855 236.49 362.862 235.856 363.525 234.92C364.188 233.985 364.452 232.825 364.26 231.695ZM359.538 298.13C359.538 299.034 359.179 299.9 358.54 300.539C357.901 301.178 357.034 301.537 356.13 301.537H317.477C316.573 301.537 315.707 301.178 315.068 300.539C314.429 299.9 314.07 299.034 314.07 298.13C314.07 297.226 314.429 296.36 315.068 295.721C315.707 295.082 316.573 294.723 317.477 294.723H356.13C357.034 294.723 357.901 295.082 358.54 295.721C359.179 296.36 359.538 297.226 359.538 298.13Z" stroke="url(#paint2_linear_3236_12679)" stroke-opacity="0.2" stroke-width="0.91623"/>
</g>
</g>
</g>
<defs>
<filter id="filter0_di_3236_12679" x="0.0885258" y="18.3676" width="373.823" height="275.784" filterUnits="userSpaceOnUse" color-interpolation-filters="sRGB">
<feFlood flood-opacity="0" result="BackgroundImageFix"/>
<feColorMatrix in="SourceAlpha" type="matrix" values="0 0 0 0 0 0 0 0 0 0 0 0 0 0 0 0 0 0 127 0" result="hardAlpha"/>
<feOffset dy="7.32984"/>
<feGaussianBlur stdDeviation="10.9948"/>
<feComposite in2="hardAlpha" operator="out"/>
<feColorMatrix type="matrix" values="0 0 0 0 0 0 0 0 0 0 0 0 0 0 0 0 0 0 0.5 0"/>
<feBlend mode="normal" in2="BackgroundImageFix" result="effect1_dropShadow_3236_12679"/>
<feBlend mode="normal" in="SourceGraphic" in2="effect1_dropShadow_3236_12679" result="shape"/>
<feColorMatrix in="SourceAlpha" type="matrix" values="0 0 0 0 0 0 0 0 0 0 0 0 0 0 0 0 0 0 127 0" result="hardAlpha"/>
<feOffset/>
<feGaussianBlur stdDeviation="10.9948"/>
<feComposite in2="hardAlpha" operator="arithmetic" k2="-1" k3="1"/>
<feColorMatrix type="matrix" values="0 0 0 0 1 0 0 0 0 1 0 0 0 0 1 0 0 0 0.15 0"/>
<feBlend mode="normal" in2="shape" result="effect2_innerShadow_3236_12679"/>
</filter>
<filter id="filter1_f_3236_12679" x="-106.193" y="-100.744" width="357.332" height="357.328" filterUnits="userSpaceOnUse" color-interpolation-filters="sRGB">
<feFlood flood-opacity="0" result="BackgroundImageFix"/>
<feBlend mode="normal" in="SourceGraphic" in2="BackgroundImageFix" result="shape"/>
<feGaussianBlur stdDeviation="45.8115" result="effect1_foregroundBlur_3236_12679"/>
</filter>
<filter id="filter2_f_3236_12679" x="171.424" y="103.576" width="322.512" height="322.512" filterUnits="userSpaceOnUse" color-interpolation-filters="sRGB">
<feFlood flood-opacity="0" result="BackgroundImageFix"/>
<feBlend mode="normal" in="SourceGraphic" in2="BackgroundImageFix" result="shape"/>
<feGaussianBlur stdDeviation="45.8115" result="effect1_foregroundBlur_3236_12679"/>
</filter>
<filter id="filter3_di_3236_12679" x="23.9106" y="121.901" width="173.171" height="144.765" filterUnits="userSpaceOnUse" color-interpolation-filters="sRGB">
<feFlood flood-opacity="0" result="BackgroundImageFix"/>
<feColorMatrix in="SourceAlpha" type="matrix" values="0 0 0 0 0 0 0 0 0 0 0 0 0 0 0 0 0 0 127 0" result="hardAlpha"/>
<feOffset dy="7.32984"/>
<feGaussianBlur stdDeviation="7.32984"/>
<feComposite in2="hardAlpha" operator="out"/>
<feColorMatrix type="matrix" values="0 0 0 0 0 0 0 0 0 0 0 0 0 0 0 0 0 0 0.1 0"/>
<feBlend mode="normal" in2="BackgroundImageFix" result="effect1_dropShadow_3236_12679"/>
<feBlend mode="normal" in="SourceGraphic" in2="effect1_dropShadow_3236_12679" result="shape"/>
<feColorMatrix in="SourceAlpha" type="matrix" values="0 0 0 0 0 0 0 0 0 0 0 0 0 0 0 0 0 0 127 0" result="hardAlpha"/>
<feOffset/>
<feGaussianBlur stdDeviation="10.9948"/>
<feComposite in2="hardAlpha" operator="arithmetic" k2="-1" k3="1"/>
<feColorMatrix type="matrix" values="0 0 0 0 1 0 0 0 0 1 0 0 0 0 1 0 0 0 0.15 0"/>
<feBlend mode="normal" in2="shape" result="effect2_innerShadow_3236_12679"/>
</filter>
<filter id="filter4_di_3236_12679" x="175.09" y="121.901" width="173.171" height="144.765" filterUnits="userSpaceOnUse" color-interpolation-filters="sRGB">
<feFlood flood-opacity="0" result="BackgroundImageFix"/>
<feColorMatrix in="SourceAlpha" type="matrix" values="0 0 0 0 0 0 0 0 0 0 0 0 0 0 0 0 0 0 127 0" result="hardAlpha"/>
<feOffset dy="7.32984"/>
<feGaussianBlur stdDeviation="7.32984"/>
<feComposite in2="hardAlpha" operator="out"/>
<feColorMatrix type="matrix" values="0 0 0 0 0 0 0 0 0 0 0 0 0 0 0 0 0 0 0.1 0"/>
<feBlend mode="normal" in2="BackgroundImageFix" result="effect1_dropShadow_3236_12679"/>
<feBlend mode="normal" in="SourceGraphic" in2="effect1_dropShadow_3236_12679" result="shape"/>
<feColorMatrix in="SourceAlpha" type="matrix" values="0 0 0 0 0 0 0 0 0 0 0 0 0 0 0 0 0 0 127 0" result="hardAlpha"/>
<feOffset/>
<feGaussianBlur stdDeviation="10.9948"/>
<feComposite in2="hardAlpha" operator="arithmetic" k2="-1" k3="1"/>
<feColorMatrix type="matrix" values="0 0 0 0 1 0 0 0 0 1 0 0 0 0 1 0 0 0 0.15 0"/>
<feBlend mode="normal" in2="shape" result="effect2_innerShadow_3236_12679"/>
</filter>
<filter id="filter5_di_3236_12679" x="175.09" y="42.1897" width="173.171" height="98.0381" filterUnits="userSpaceOnUse" color-interpolation-filters="sRGB">
<feFlood flood-opacity="0" result="BackgroundImageFix"/>
<feColorMatrix in="SourceAlpha" type="matrix" values="0 0 0 0 0 0 0 0 0 0 0 0 0 0 0 0 0 0 127 0" result="hardAlpha"/>
<feOffset dy="7.32984"/>
<feGaussianBlur stdDeviation="7.32984"/>
<feComposite in2="hardAlpha" operator="out"/>
<feColorMatrix type="matrix" values="0 0 0 0 0 0 0 0 0 0 0 0 0 0 0 0 0 0 0.1 0"/>
<feBlend mode="normal" in2="BackgroundImageFix" result="effect1_dropShadow_3236_12679"/>
<feBlend mode="normal" in="SourceGraphic" in2="effect1_dropShadow_3236_12679" result="shape"/>
<feColorMatrix in="SourceAlpha" type="matrix" values="0 0 0 0 0 0 0 0 0 0 0 0 0 0 0 0 0 0 127 0" result="hardAlpha"/>
<feOffset/>
<feGaussianBlur stdDeviation="10.9948"/>
<feComposite in2="hardAlpha" operator="arithmetic" k2="-1" k3="1"/>
<feColorMatrix type="matrix" values="0 0 0 0 1 0 0 0 0 1 0 0 0 0 1 0 0 0 0.15 0"/>
<feBlend mode="normal" in2="shape" result="effect2_innerShadow_3236_12679"/>
</filter>
<filter id="filter6_di_3236_12679" x="23.9106" y="42.1897" width="173.171" height="98.0381" filterUnits="userSpaceOnUse" color-interpolation-filters="sRGB">
<feFlood flood-opacity="0" result="BackgroundImageFix"/>
<feColorMatrix in="SourceAlpha" type="matrix" values="0 0 0 0 0 0 0 0 0 0 0 0 0 0 0 0 0 0 127 0" result="hardAlpha"/>
<feOffset dy="7.32984"/>
<feGaussianBlur stdDeviation="7.32984"/>
<feComposite in2="hardAlpha" operator="out"/>
<feColorMatrix type="matrix" values="0 0 0 0 0 0 0 0 0 0 0 0 0 0 0 0 0 0 0.1 0"/>
<feBlend mode="normal" in2="BackgroundImageFix" result="effect1_dropShadow_3236_12679"/>
<feBlend mode="normal" in="SourceGraphic" in2="effect1_dropShadow_3236_12679" result="shape"/>
<feColorMatrix in="SourceAlpha" type="matrix" values="0 0 0 0 0 0 0 0 0 0 0 0 0 0 0 0 0 0 127 0" result="hardAlpha"/>
<feOffset/>
<feGaussianBlur stdDeviation="10.9948"/>
<feComposite in2="hardAlpha" operator="arithmetic" k2="-1" k3="1"/>
<feColorMatrix type="matrix" values="0 0 0 0 1 0 0 0 0 1 0 0 0 0 1 0 0 0 0.15 0"/>
<feBlend mode="normal" in2="shape" result="effect2_innerShadow_3236_12679"/>
</filter>
<filter id="filter7_di_3236_12679" x="272.292" y="179.094" width="129.018" height="152.221" filterUnits="userSpaceOnUse" color-interpolation-filters="sRGB">
<feFlood flood-opacity="0" result="BackgroundImageFix"/>
<feColorMatrix in="SourceAlpha" type="matrix" values="0 0 0 0 0 0 0 0 0 0 0 0 0 0 0 0 0 0 127 0" result="hardAlpha"/>
<feOffset dy="7.32984"/>
<feGaussianBlur stdDeviation="10.9948"/>
<feComposite in2="hardAlpha" operator="out"/>
<feColorMatrix type="matrix" values="0 0 0 0 0 0 0 0 0 0 0 0 0 0 0 0 0 0 0.5 0"/>
<feBlend mode="normal" in2="BackgroundImageFix" result="effect1_dropShadow_3236_12679"/>
<feBlend mode="normal" in="SourceGraphic" in2="effect1_dropShadow_3236_12679" result="shape"/>
<feColorMatrix in="SourceAlpha" type="matrix" values="0 0 0 0 0 0 0 0 0 0 0 0 0 0 0 0 0 0 127 0" result="hardAlpha"/>
<feOffset/>
<feGaussianBlur stdDeviation="10.9948"/>
<feComposite in2="hardAlpha" operator="arithmetic" k2="-1" k3="1"/>
<feColorMatrix type="matrix" values="0 0 0 0 1 0 0 0 0 1 0 0 0 0 1 0 0 0 0.15 0"/>
<feBlend mode="normal" in2="shape" result="effect2_innerShadow_3236_12679"/>
</filter>
<linearGradient id="paint0_linear_3236_12679" x1="187.002" y1="0.955293" x2="187.002" y2="264.83" gradientUnits="userSpaceOnUse">
<stop stop-color="#303030"/>
<stop offset="1" stop-color="#161616"/>
</linearGradient>
<linearGradient id="paint1_linear_3236_12679" x1="28.4939" y1="33.0256" x2="359.399" y2="253.617" gradientUnits="userSpaceOnUse">
<stop stop-color="#3F3F3F"/>
<stop offset="1" stop-color="#282828"/>
</linearGradient>
<linearGradient id="paint2_linear_3236_12679" x1="336.803" y1="193.753" x2="405.34" y2="283.358" gradientUnits="userSpaceOnUse">
<stop stop-color="#79BFFF"/>
<stop offset="1" stop-color="#1569B5"/>
</linearGradient>
<clipPath id="clip0_3236_12679">
<rect width="387" height="310" fill="white"/>
</clipPath>
</defs>
</svg>
