<svg width="366" height="288" viewBox="0 0 366 288" fill="none" xmlns="http://www.w3.org/2000/svg">
<g clip-path="url(#clip0_3230_12210)">
<path d="M12 18.855C12 8.96591 20.0167 0.949219 29.9058 0.949219H336.094C345.983 0.949219 354 8.9659 354 18.855V258.792H12V18.855Z" fill="#161616"/>
<mask id="mask0_3230_12210" style="mask-type:luminance" maskUnits="userSpaceOnUse" x="12" y="0" width="342" height="259">
<path d="M12 18.855C12 8.96591 20.0167 0.949219 29.9058 0.949219H336.094C345.983 0.949219 354 8.9659 354 18.855V258.792H12V18.855Z" fill="white"/>
</mask>
<g mask="url(#mask0_3230_12210)">
<path d="M11.1016 18.8557C11.1016 8.4722 19.5191 0.0546875 29.9027 0.0546875H336.091C346.475 0.0546875 354.892 8.4722 354.892 18.8557H353.102C353.102 9.46111 345.486 1.84526 336.091 1.84526H29.9027C20.508 1.84526 12.8922 9.46111 12.8922 18.8557H11.1016ZM11.1016 258.793V18.8557C11.1016 8.4722 19.5191 0.0546875 29.9027 0.0546875V1.84526C20.508 1.84526 12.8922 9.46111 12.8922 18.8557V258.793H11.1016ZM336.091 0.0546875C346.475 0.0546875 354.892 8.4722 354.892 18.8557V258.793H353.102V18.8557C353.102 9.46111 345.486 1.84526 336.091 1.84526V0.0546875Z" fill="url(#paint0_linear_3230_12210)"/>
</g>
<g filter="url(#filter0_di_3230_12210)">
<mask id="mask1_3230_12210" style="mask-type:luminance" maskUnits="userSpaceOnUse" x="21" y="32" width="324" height="227">
<path d="M329.831 32.2852H36.1762C28.2649 32.2852 21.8516 38.6985 21.8516 46.6098V244.469C21.8516 252.38 28.2649 258.793 36.1762 258.793H329.831C337.742 258.793 344.156 252.38 344.156 244.469V46.6098C344.156 38.6985 337.742 32.2852 329.831 32.2852Z" fill="white"/>
</mask>
<g mask="url(#mask1_3230_12210)">
<path d="M21.8516 46.6098C21.8516 38.6985 28.2649 32.2852 36.1762 32.2852H329.831C337.742 32.2852 344.155 38.6985 344.155 46.6098V244.469C344.155 252.38 337.742 258.793 329.831 258.793H36.1762C28.2649 258.793 21.8516 252.38 21.8516 244.469V46.6098Z" fill="white" fill-opacity="0.04"/>
<mask id="mask2_3230_12210" style="mask-type:luminance" maskUnits="userSpaceOnUse" x="21" y="32" width="324" height="227">
<path d="M21.8516 46.6098C21.8516 38.6985 28.2649 32.2852 36.1762 32.2852H329.831C337.742 32.2852 344.155 38.6985 344.155 46.6098V244.469C344.155 252.38 337.742 258.793 329.831 258.793H36.1762C28.2649 258.793 21.8516 252.38 21.8516 244.469V46.6098Z" fill="white"/>
</mask>
<g mask="url(#mask2_3230_12210)">
<path d="M36.173 33.1812H329.828V31.3906H36.173V33.1812ZM343.257 46.6105V244.469H345.048V46.6105H343.257ZM329.828 257.898H36.173V259.689H329.828V257.898ZM22.7436 244.469V46.6105H20.9531V244.469H22.7436ZM36.173 257.898C28.7562 257.898 22.7436 251.886 22.7436 244.469H20.9531C20.9531 252.875 27.7672 259.689 36.173 259.689V257.898ZM343.257 244.469C343.257 251.886 337.244 257.898 329.828 257.898V259.689C338.233 259.689 345.048 252.875 345.048 244.469H343.257ZM329.828 33.1812C337.244 33.1812 343.257 39.1937 343.257 46.6105H345.048C345.048 38.2048 338.233 31.3906 329.828 31.3906V33.1812ZM36.173 31.3906C27.7672 31.3906 20.9531 38.2047 20.9531 46.6105H22.7436C22.7436 39.1937 28.7562 33.1812 36.173 33.1812V31.3906Z" fill="url(#paint1_linear_3230_12210)"/>
</g>
<g filter="url(#filter1_f_3230_12210)">
<path d="M71.0915 161.206C118.065 161.206 156.144 123.127 156.144 76.1539C156.144 29.1808 118.065 -8.89844 71.0915 -8.89844C24.1183 -8.89844 -13.9609 29.1808 -13.9609 76.1539C-13.9609 123.127 24.1183 161.206 71.0915 161.206Z" fill="white" fill-opacity="0.15"/>
</g>
<g filter="url(#filter2_f_3230_12210)">
<path d="M325.354 326.834C362.933 326.834 393.396 296.37 393.396 258.792C393.396 221.213 362.933 190.75 325.354 190.75C287.776 190.75 257.312 221.213 257.312 258.792C257.312 296.37 287.776 326.834 325.354 326.834Z" fill="white" fill-opacity="0.15"/>
</g>
<g filter="url(#filter3_di_3230_12210)">
<path d="M242.995 118.23H49.4082C45.0665 118.23 41.5469 121.75 41.5469 126.092V234.185C41.5469 238.527 45.0665 242.046 49.4082 242.046H242.995C247.336 242.046 250.856 238.527 250.856 234.185V126.092C250.856 121.75 247.336 118.23 242.995 118.23Z" fill="#D9D9D9" fill-opacity="0.1"/>
</g>
<path d="M228.25 137.887H200.735C198.565 137.887 196.805 139.647 196.805 141.817C196.805 143.988 198.565 145.748 200.735 145.748H228.25C230.421 145.748 232.181 143.988 232.181 141.817C232.181 139.647 230.421 137.887 228.25 137.887Z" fill="white"/>
<path d="M230.223 224.359H63.1685C62.083 224.359 61.2031 225.239 61.2031 226.325C61.2031 227.41 62.083 228.29 63.1685 228.29H230.223C231.308 228.29 232.188 227.41 232.188 226.325C232.188 225.239 231.308 224.359 230.223 224.359Z" fill="white" fill-opacity="0.1"/>
<path d="M321.771 93.1641H49.6031C48.6142 93.1641 47.8125 93.9657 47.8125 94.9546C47.8125 95.9435 48.6142 96.7452 49.6031 96.7452H321.771C322.76 96.7452 323.562 95.9435 323.562 94.9546C323.562 93.9657 322.76 93.1641 321.771 93.1641Z" fill="white" fill-opacity="0.1"/>
<path d="M274.32 83.3164H49.6031C48.6142 83.3164 47.8125 84.1181 47.8125 85.107C47.8125 86.0959 48.6142 86.8976 49.6031 86.8976H274.32C275.309 86.8976 276.11 86.0959 276.11 85.107C276.11 84.1181 275.309 83.3164 274.32 83.3164Z" fill="white" fill-opacity="0.1"/>
<path d="M217.022 72.5742H49.6031C48.6142 72.5742 47.8125 73.3759 47.8125 74.3648C47.8125 75.3537 48.6142 76.1554 49.6031 76.1554H217.022C218.011 76.1554 218.812 75.3537 218.812 74.3648C218.812 73.3759 218.011 72.5742 217.022 72.5742Z" fill="white" fill-opacity="0.1"/>
<path d="M61.2031 153.61L61.2031 226.328C61.2031 227.413 62.083 228.293 63.1685 228.293C64.2539 228.293 65.1338 227.413 65.1338 226.328V153.61C65.1338 152.525 64.2539 151.645 63.1685 151.645C62.083 151.645 61.2031 152.525 61.2031 153.61Z" fill="white" fill-opacity="0.1"/>
<path d="M80.3594 209.62L124.088 168.84L178.135 197.828L218.916 168.84" stroke="#626262" stroke-width="1.96534" stroke-dasharray="5.9 5.9"/>
<g filter="url(#filter4_di_3230_12210)">
<path d="M320.951 118.23H263.507C260.086 118.23 257.312 121.004 257.312 124.425V235.586C257.312 239.007 260.086 241.78 263.507 241.78H320.951C324.372 241.78 327.145 239.007 327.145 235.586V124.425C327.145 121.004 324.372 118.23 320.951 118.23Z" fill="#D9D9D9" fill-opacity="0.1"/>
</g>
<path d="M271.633 206.864V227.456C271.633 228.444 272.434 229.246 273.423 229.246C274.412 229.246 275.214 228.444 275.214 227.456V206.864C275.214 205.875 274.412 205.073 273.423 205.073C272.434 205.073 271.633 205.875 271.633 206.864Z" fill="white" fill-opacity="0.1"/>
<path d="M284.164 189.853V227.456C284.164 228.444 284.966 229.246 285.955 229.246C286.944 229.246 287.745 228.444 287.745 227.456V189.853C287.745 188.865 286.944 188.063 285.955 188.063C284.966 188.063 284.164 188.865 284.164 189.853Z" fill="white" fill-opacity="0.1"/>
<path d="M296.703 171.052V227.456C296.703 228.444 297.505 229.246 298.494 229.246C299.483 229.246 300.284 228.444 300.284 227.456V171.052C300.284 170.063 299.483 169.262 298.494 169.262C297.505 169.262 296.703 170.063 296.703 171.052Z" fill="white" fill-opacity="0.1"/>
<path d="M309.234 154.563V227.281C309.234 228.366 310.114 229.246 311.2 229.246C312.285 229.246 313.165 228.366 313.165 227.281V154.563C313.165 153.478 312.285 152.598 311.2 152.598C310.114 152.598 309.234 153.478 309.234 154.563Z" fill="white" fill-opacity="0.1"/>
</g>
</g>
<path d="M31.6937 22.4342C33.177 22.4342 34.3795 21.2317 34.3795 19.7484C34.3795 18.265 33.177 17.0625 31.6937 17.0625C30.2103 17.0625 29.0078 18.265 29.0078 19.7484C29.0078 21.2317 30.2103 22.4342 31.6937 22.4342Z" fill="#D9D9D9"/>
<path d="M45.1234 22.4342C46.6067 22.4342 47.8092 21.2317 47.8092 19.7484C47.8092 18.265 46.6067 17.0625 45.1234 17.0625C43.64 17.0625 42.4375 18.265 42.4375 19.7484C42.4375 21.2317 43.64 22.4342 45.1234 22.4342Z" fill="#D9D9D9"/>
<path d="M58.553 22.4342C60.0364 22.4342 61.2389 21.2317 61.2389 19.7484C61.2389 18.265 60.0364 17.0625 58.553 17.0625C57.0697 17.0625 55.8672 18.265 55.8672 19.7484C55.8672 21.2317 57.0697 22.4342 58.553 22.4342Z" fill="#D9D9D9"/>
<g filter="url(#filter5_di_3230_12210)">
<path fill-rule="evenodd" clip-rule="evenodd" d="M311.14 230.139C313.729 224.49 315.172 218.207 315.172 211.586C315.172 186.962 295.21 167 270.586 167C245.962 167 226 186.962 226 211.586C226 236.21 245.962 256.172 270.586 256.172C280.506 256.172 289.67 252.932 297.077 247.452L335.918 276.949C340.821 280.672 347.813 279.716 351.536 274.813C355.259 269.911 354.303 262.918 349.401 259.195L311.14 230.139Z" fill="#1A8EF7" fill-opacity="0.18"/>
<mask id="mask3_3230_12210" style="mask-type:luminance" maskUnits="userSpaceOnUse" x="226" y="167" width="128" height="113">
<path fill-rule="evenodd" clip-rule="evenodd" d="M311.14 230.139C313.729 224.49 315.172 218.207 315.172 211.586C315.172 186.962 295.21 167 270.586 167C245.962 167 226 186.962 226 211.586C226 236.21 245.962 256.172 270.586 256.172C280.506 256.172 289.67 252.932 297.077 247.452L335.918 276.949C340.821 280.672 347.813 279.716 351.536 274.813C355.259 269.911 354.303 262.918 349.401 259.195L311.14 230.139Z" fill="white"/>
</mask>
<g mask="url(#mask3_3230_12210)">
<path d="M311.138 230.141L310.387 229.797L310.112 230.399L310.639 230.799L311.138 230.141ZM297.075 247.454L297.574 246.797L297.081 246.422L296.584 246.79L297.075 247.454ZM314.344 211.588C314.344 218.087 312.927 224.254 310.387 229.797L311.888 230.485C314.526 224.73 315.995 218.33 315.995 211.588H314.344ZM270.584 167.828C294.752 167.828 314.344 187.42 314.344 211.588H315.995C315.995 186.508 295.664 166.176 270.584 166.176V167.828ZM226.823 211.588C226.823 187.42 246.415 167.828 270.584 167.828V166.176C245.503 166.176 225.172 186.508 225.172 211.588H226.823ZM270.584 255.348C246.415 255.348 226.823 235.756 226.823 211.588H225.172C225.172 236.668 245.503 257 270.584 257V255.348ZM296.584 246.79C289.314 252.169 280.321 255.348 270.584 255.348V257C280.687 257 290.022 253.699 297.566 248.118L296.584 246.79ZM336.416 276.294L297.574 246.797L296.575 248.112L335.417 277.609L336.416 276.294ZM350.877 274.316C347.43 278.855 340.955 279.741 336.416 276.294L335.417 277.609C340.683 281.608 348.193 280.581 352.192 275.315L350.877 274.316ZM348.899 259.855C353.439 263.302 354.324 269.777 350.877 274.316L352.192 275.315C356.191 270.049 355.164 262.539 349.898 258.54L348.899 259.855ZM310.639 230.799L348.899 259.855L349.898 258.54L311.637 229.484L310.639 230.799Z" fill="url(#paint2_linear_3230_12210)" fill-opacity="0.2"/>
</g>
</g>
<path d="M270.584 246.262C289.736 246.262 305.262 230.737 305.262 211.584C305.262 192.432 289.736 176.906 270.584 176.906C251.432 176.906 235.906 192.432 235.906 211.584C235.906 230.737 251.432 246.262 270.584 246.262Z" fill="url(#paint3_radial_3230_12210)"/>
</g>
<defs>
<filter id="filter0_di_3230_12210" x="0.364563" y="17.9605" width="365.279" height="269.482" filterUnits="userSpaceOnUse" color-interpolation-filters="sRGB">
<feFlood flood-opacity="0" result="BackgroundImageFix"/>
<feColorMatrix in="SourceAlpha" type="matrix" values="0 0 0 0 0 0 0 0 0 0 0 0 0 0 0 0 0 0 127 0" result="hardAlpha"/>
<feOffset dy="7.1623"/>
<feGaussianBlur stdDeviation="10.7435"/>
<feComposite in2="hardAlpha" operator="out"/>
<feColorMatrix type="matrix" values="0 0 0 0 0 0 0 0 0 0 0 0 0 0 0 0 0 0 0.5 0"/>
<feBlend mode="normal" in2="BackgroundImageFix" result="effect1_dropShadow_3230_12210"/>
<feBlend mode="normal" in="SourceGraphic" in2="effect1_dropShadow_3230_12210" result="shape"/>
<feColorMatrix in="SourceAlpha" type="matrix" values="0 0 0 0 0 0 0 0 0 0 0 0 0 0 0 0 0 0 127 0" result="hardAlpha"/>
<feOffset/>
<feGaussianBlur stdDeviation="10.7435"/>
<feComposite in2="hardAlpha" operator="arithmetic" k2="-1" k3="1"/>
<feColorMatrix type="matrix" values="0 0 0 0 1 0 0 0 0 1 0 0 0 0 1 0 0 0 0.15 0"/>
<feBlend mode="normal" in2="shape" result="effect2_innerShadow_3230_12210"/>
</filter>
<filter id="filter1_f_3230_12210" x="-103.49" y="-98.4272" width="349.159" height="349.163" filterUnits="userSpaceOnUse" color-interpolation-filters="sRGB">
<feFlood flood-opacity="0" result="BackgroundImageFix"/>
<feBlend mode="normal" in="SourceGraphic" in2="BackgroundImageFix" result="shape"/>
<feGaussianBlur stdDeviation="44.7644" result="effect1_foregroundBlur_3230_12210"/>
</filter>
<filter id="filter2_f_3230_12210" x="167.784" y="101.221" width="315.144" height="315.14" filterUnits="userSpaceOnUse" color-interpolation-filters="sRGB">
<feFlood flood-opacity="0" result="BackgroundImageFix"/>
<feBlend mode="normal" in="SourceGraphic" in2="BackgroundImageFix" result="shape"/>
<feGaussianBlur stdDeviation="44.7644" result="effect1_foregroundBlur_3230_12210"/>
</filter>
<filter id="filter3_di_3230_12210" x="25.8242" y="110.369" width="240.758" height="155.262" filterUnits="userSpaceOnUse" color-interpolation-filters="sRGB">
<feFlood flood-opacity="0" result="BackgroundImageFix"/>
<feColorMatrix in="SourceAlpha" type="matrix" values="0 0 0 0 0 0 0 0 0 0 0 0 0 0 0 0 0 0 127 0" result="hardAlpha"/>
<feOffset dy="7.86136"/>
<feGaussianBlur stdDeviation="7.86136"/>
<feComposite in2="hardAlpha" operator="out"/>
<feColorMatrix type="matrix" values="0 0 0 0 0 0 0 0 0 0 0 0 0 0 0 0 0 0 0.1 0"/>
<feBlend mode="normal" in2="BackgroundImageFix" result="effect1_dropShadow_3230_12210"/>
<feBlend mode="normal" in="SourceGraphic" in2="effect1_dropShadow_3230_12210" result="shape"/>
<feColorMatrix in="SourceAlpha" type="matrix" values="0 0 0 0 0 0 0 0 0 0 0 0 0 0 0 0 0 0 127 0" result="hardAlpha"/>
<feOffset/>
<feGaussianBlur stdDeviation="11.792"/>
<feComposite in2="hardAlpha" operator="arithmetic" k2="-1" k3="1"/>
<feColorMatrix type="matrix" values="0 0 0 0 1 0 0 0 0 1 0 0 0 0 1 0 0 0 0.15 0"/>
<feBlend mode="normal" in2="shape" result="effect2_innerShadow_3230_12210"/>
</filter>
<filter id="filter4_di_3230_12210" x="244.924" y="112.036" width="94.6136" height="148.328" filterUnits="userSpaceOnUse" color-interpolation-filters="sRGB">
<feFlood flood-opacity="0" result="BackgroundImageFix"/>
<feColorMatrix in="SourceAlpha" type="matrix" values="0 0 0 0 0 0 0 0 0 0 0 0 0 0 0 0 0 0 127 0" result="hardAlpha"/>
<feOffset dy="6.19442"/>
<feGaussianBlur stdDeviation="6.19442"/>
<feComposite in2="hardAlpha" operator="out"/>
<feColorMatrix type="matrix" values="0 0 0 0 0 0 0 0 0 0 0 0 0 0 0 0 0 0 0.1 0"/>
<feBlend mode="normal" in2="BackgroundImageFix" result="effect1_dropShadow_3230_12210"/>
<feBlend mode="normal" in="SourceGraphic" in2="effect1_dropShadow_3230_12210" result="shape"/>
<feColorMatrix in="SourceAlpha" type="matrix" values="0 0 0 0 0 0 0 0 0 0 0 0 0 0 0 0 0 0 127 0" result="hardAlpha"/>
<feOffset/>
<feGaussianBlur stdDeviation="9.29164"/>
<feComposite in2="hardAlpha" operator="arithmetic" k2="-1" k3="1"/>
<feColorMatrix type="matrix" values="0 0 0 0 1 0 0 0 0 1 0 0 0 0 1 0 0 0 0.15 0"/>
<feBlend mode="normal" in2="shape" result="effect2_innerShadow_3230_12210"/>
</filter>
<filter id="filter5_di_3230_12210" x="206.184" y="153.789" width="167.437" height="151.851" filterUnits="userSpaceOnUse" color-interpolation-filters="sRGB">
<feFlood flood-opacity="0" result="BackgroundImageFix"/>
<feColorMatrix in="SourceAlpha" type="matrix" values="0 0 0 0 0 0 0 0 0 0 0 0 0 0 0 0 0 0 127 0" result="hardAlpha"/>
<feOffset dy="6.60534"/>
<feGaussianBlur stdDeviation="9.908"/>
<feComposite in2="hardAlpha" operator="out"/>
<feColorMatrix type="matrix" values="0 0 0 0 0 0 0 0 0 0 0 0 0 0 0 0 0 0 0.5 0"/>
<feBlend mode="normal" in2="BackgroundImageFix" result="effect1_dropShadow_3230_12210"/>
<feBlend mode="normal" in="SourceGraphic" in2="effect1_dropShadow_3230_12210" result="shape"/>
<feColorMatrix in="SourceAlpha" type="matrix" values="0 0 0 0 0 0 0 0 0 0 0 0 0 0 0 0 0 0 127 0" result="hardAlpha"/>
<feOffset/>
<feGaussianBlur stdDeviation="9.908"/>
<feComposite in2="hardAlpha" operator="arithmetic" k2="-1" k3="1"/>
<feColorMatrix type="matrix" values="0 0 0 0 1 0 0 0 0 1 0 0 0 0 1 0 0 0 0.15 0"/>
<feBlend mode="normal" in2="shape" result="effect2_innerShadow_3230_12210"/>
</filter>
<linearGradient id="paint0_linear_3230_12210" x1="182.997" y1="0.949975" x2="182.997" y2="258.793" gradientUnits="userSpaceOnUse">
<stop stop-color="#303030"/>
<stop offset="1" stop-color="#161616"/>
</linearGradient>
<linearGradient id="paint1_linear_3230_12210" x1="28.1154" y1="32.2859" x2="351.458" y2="247.835" gradientUnits="userSpaceOnUse">
<stop stop-color="#3F3F3F"/>
<stop offset="1" stop-color="#282828"/>
</linearGradient>
<linearGradient id="paint2_linear_3230_12210" x1="289.901" y1="167.002" x2="350.673" y2="282.182" gradientUnits="userSpaceOnUse">
<stop stop-color="#79BFFF"/>
<stop offset="1" stop-color="#1569B5"/>
</linearGradient>
<radialGradient id="paint3_radial_3230_12210" cx="0" cy="0" r="1" gradientUnits="userSpaceOnUse" gradientTransform="translate(270.584 274.748) rotate(-90) scale(97.8417 97.8414)">
<stop stop-color="white" stop-opacity="0.5"/>
<stop offset="1" stop-color="white" stop-opacity="0"/>
</radialGradient>
<clipPath id="clip0_3230_12210">
<rect width="366" height="288" fill="white"/>
</clipPath>
</defs>
</svg>
