<svg width="441" height="374" viewBox="0 0 441 374" fill="none" xmlns="http://www.w3.org/2000/svg">
<g filter="url(#filter0_d_3241_12791)">
<rect x="44.9844" y="75.1836" width="390.017" height="286.26" rx="13.8961" fill="#201F1F"/>
<rect x="45.216" y="75.4152" width="389.554" height="285.797" rx="13.6645" stroke="#606060" stroke-width="0.463203"/>
</g>
<g filter="url(#filter1_d_3241_12791)">
<rect x="157.31" y="96.7277" width="257.391" height="243.182" rx="13.6645" fill="#383838" stroke="#606060" stroke-width="0.463203"/>
<rect x="167.109" y="251.547" width="158.808" height="8.35832" rx="4.17916" fill="white"/>
<rect x="167.341" y="271.005" width="116.971" height="7.89512" rx="3.94756" fill="#383838" stroke="#8B8B8B" stroke-width="0.463203"/>
<rect x="167.341" y="290.228" width="158.345" height="7.89512" rx="3.94756" fill="#383838" stroke="#8B8B8B" stroke-width="0.463203"/>
<rect x="167.341" y="309.45" width="158.345" height="7.89512" rx="3.94756" fill="#383838" stroke="#8B8B8B" stroke-width="0.463203"/>
<rect x="167.109" y="107.367" width="125.126" height="118.27" rx="13.8961" fill="#383838"/>
<rect x="312.125" y="143.723" width="84.0011" height="8.35832" rx="4.17916" fill="white"/>
<rect x="312.357" y="162.763" width="83.5379" height="7.89512" rx="3.94756" fill="#383838" stroke="#8B8B8B" stroke-width="0.463203"/>
<rect x="312.357" y="181.568" width="83.5379" height="7.89512" rx="3.94756" fill="#383838" stroke="#8B8B8B" stroke-width="0.463203"/>
<path d="M277 123H189C186.877 123 184.845 123.843 183.341 125.341C181.843 126.845 181 128.877 181 131V203C181 205.123 181.843 207.155 183.341 208.659C184.845 210.157 186.877 211 189 211H277C279.123 211 281.155 210.157 282.659 208.659C284.157 207.155 285 205.123 285 203V131C285 128.877 284.157 126.845 282.659 125.341C281.155 123.843 279.123 123 277 123ZM247 147C248.189 147 249.347 147.352 250.333 148.013C251.32 148.669 252.088 149.608 252.541 150.701C253 151.8 253.117 153.005 252.883 154.168C252.653 155.336 252.083 156.403 251.24 157.24C250.403 158.083 249.336 158.653 248.168 158.883C247.005 159.117 245.8 159 244.701 158.541C243.608 158.088 242.669 157.32 242.013 156.333C241.352 155.347 241 154.189 241 153C241 151.411 241.635 149.88 242.76 148.76C243.88 147.635 245.411 147 247 147ZM277 192.413C277 198.259 272.259 203 266.413 203H202.899C195.224 203 189 196.776 189 189.101C189 185.416 190.461 181.88 193.069 179.272L212.168 160.168C212.541 159.8 212.984 159.501 213.469 159.304C213.955 159.101 214.472 158.995 215 158.995C215.528 158.995 216.045 159.101 216.531 159.304C217.016 159.501 217.459 159.8 217.832 160.168L251.501 193.832C252.248 194.579 253.267 195 254.328 195C255.389 195 256.408 194.579 257.16 193.832C257.912 193.08 258.333 192.061 258.333 191C258.333 189.939 257.912 188.92 257.16 188.168L255.507 186.515C251.544 182.557 251.539 176.131 255.501 172.168C256.248 171.421 257.267 171 258.328 171C259.389 171 260.403 171.421 261.155 172.168L273.907 184.936C275.885 186.92 277 189.608 277 192.413Z" fill="white" fill-opacity="0.1"/>
</g>
<g filter="url(#filter2_d_3241_12791)">
<g filter="url(#filter3_d_3241_12791)">
<rect x="44.9844" y="2" width="352.498" height="47.2468" rx="9.26407" fill="#1C1C1C"/>
<rect x="45.216" y="2.2316" width="352.035" height="46.7836" rx="9.03247" stroke="#626262" stroke-width="0.463203"/>
</g>
</g>
<rect x="78.5597" y="21.2199" width="37.0563" height="8.80087" rx="4.40043" fill="#201F1F" stroke="#8B8B8B" stroke-width="0.463203"/>
<rect x="237.443" y="21.2199" width="37.0563" height="8.80087" rx="4.40043" fill="#201F1F" stroke="#8B8B8B" stroke-width="0.463203"/>
<rect x="278.669" y="21.2199" width="37.0563" height="8.80087" rx="4.40043" fill="#201F1F" stroke="#8B8B8B" stroke-width="0.463203"/>
<rect x="319.896" y="21.2199" width="37.0563" height="8.80087" rx="4.40043" fill="#201F1F" stroke="#8B8B8B" stroke-width="0.463203"/>
<g filter="url(#filter4_d_3241_12791)">
<rect x="-0.231602" y="0.231602" width="127.381" height="55.1212" rx="13.6645" transform="matrix(-1 0 0 1 134.381 153.461)" fill="#4F4F4F" stroke="#606060" stroke-width="0.463203"/>
</g>
<rect x="118.117" y="198.395" width="36.1299" height="34.2771" rx="4.63203" transform="rotate(180 118.117 198.395)" fill="#4F4F4F"/>
<rect x="23" y="171.77" width="34.7176" height="3.45563" rx="1.72781" fill="white"/>
<rect x="23.2316" y="179.775" width="34.2544" height="2.99243" rx="1.49621" fill="#4F4F4F" stroke="#8B8B8B" stroke-width="0.463203"/>
<rect x="23.2316" y="187.552" width="34.2544" height="2.99243" rx="1.49621" fill="#4F4F4F" stroke="#8B8B8B" stroke-width="0.463203"/>
<path d="M115.549 166H85.0106C84.274 166 83.5688 166.292 83.0469 166.813C82.5268 167.334 82.2344 168.04 82.2344 168.776V193.762C82.2344 194.499 82.5268 195.204 83.0469 195.726C83.5688 196.246 84.274 196.538 85.0106 196.538H115.549C116.286 196.538 116.991 196.246 117.513 195.726C118.033 195.204 118.325 194.499 118.325 193.762V168.776C118.325 168.04 118.033 167.334 117.513 166.813C116.991 166.292 116.286 166 115.549 166ZM105.138 174.329C105.551 174.329 105.953 174.451 106.295 174.68C106.637 174.908 106.904 175.234 107.061 175.613C107.22 175.994 107.261 176.413 107.18 176.816C107.1 177.221 106.902 177.592 106.61 177.882C106.319 178.175 105.949 178.373 105.544 178.452C105.14 178.534 104.722 178.493 104.341 178.334C103.961 178.177 103.635 177.91 103.408 177.568C103.178 177.225 103.056 176.824 103.056 176.411C103.056 175.859 103.276 175.328 103.667 174.939C104.055 174.549 104.587 174.329 105.138 174.329ZM115.549 190.088C115.549 192.117 113.904 193.762 111.875 193.762H89.8338C87.1705 193.762 85.0106 191.602 85.0106 188.939C85.0106 187.66 85.5177 186.433 86.4228 185.528L93.0505 178.898C93.1801 178.771 93.3337 178.667 93.5022 178.599C93.6706 178.528 93.8501 178.491 94.0333 178.491C94.2166 178.491 94.3961 178.528 94.5645 178.599C94.7329 178.667 94.8866 178.771 95.0161 178.898L106.7 190.581C106.959 190.84 107.313 190.986 107.681 190.986C108.05 190.986 108.403 190.84 108.664 190.581C108.925 190.32 109.071 189.966 109.071 189.598C109.071 189.23 108.925 188.876 108.664 188.615L108.09 188.041C106.715 186.668 106.713 184.438 108.088 183.063C108.348 182.804 108.701 182.657 109.069 182.657C109.438 182.657 109.789 182.804 110.05 183.063L114.476 187.494C115.162 188.182 115.549 189.115 115.549 190.088Z" fill="white" fill-opacity="0.1"/>
<g filter="url(#filter5_d_3241_12791)">
<rect x="8.14566" y="225.962" width="127.381" height="55.1212" rx="13.6645" fill="#4F4F4F" stroke="#606060" stroke-width="0.463203"/>
</g>
<rect x="24.1328" y="236.387" width="36.1299" height="34.2771" rx="4.63203" fill="#4F4F4F"/>
<rect x="84.5234" y="244.008" width="34.7176" height="3.45563" rx="1.72781" fill="white"/>
<rect x="84.755" y="252.013" width="34.2544" height="2.99243" rx="1.49621" fill="#4F4F4F" stroke="#8B8B8B" stroke-width="0.463203"/>
<rect x="84.755" y="259.79" width="34.2544" height="2.99243" rx="1.49621" fill="#4F4F4F" stroke="#8B8B8B" stroke-width="0.463203"/>
<path d="M57.3147 239H26.7762C26.0396 239 25.3344 239.292 24.8125 239.813C24.2924 240.334 24 241.04 24 241.776V266.762C24 267.499 24.2924 268.204 24.8125 268.726C25.3344 269.246 26.0396 269.538 26.7762 269.538H57.3147C58.0513 269.538 58.7565 269.246 59.2784 268.726C59.7985 268.204 60.0909 267.499 60.0909 266.762V241.776C60.0909 241.04 59.7985 240.334 59.2784 239.813C58.7565 239.292 58.0513 239 57.3147 239ZM46.9038 247.329C47.3166 247.329 47.7182 247.451 48.0606 247.68C48.403 247.908 48.6695 248.234 48.8268 248.613C48.986 248.994 49.0267 249.413 48.9453 249.816C48.8657 250.221 48.6677 250.592 48.3753 250.882C48.0847 251.175 47.7145 251.373 47.3092 251.452C46.9057 251.534 46.4874 251.493 46.1061 251.334C45.7267 251.177 45.401 250.91 45.1733 250.568C44.9438 250.225 44.8217 249.824 44.8217 249.411C44.8217 248.859 45.0419 248.328 45.4324 247.939C45.8211 247.549 46.3523 247.329 46.9038 247.329ZM57.3147 263.088C57.3147 265.117 55.6693 266.762 53.6408 266.762H31.5994C28.9361 266.762 26.7762 264.602 26.7762 261.939C26.7762 260.66 27.2833 259.433 28.1884 258.528L34.8162 251.898C34.9457 251.771 35.0994 251.667 35.2678 251.599C35.4362 251.528 35.6157 251.491 35.799 251.491C35.9822 251.491 36.1617 251.528 36.3301 251.599C36.4985 251.667 36.6522 251.771 36.7817 251.898L48.4659 263.581C48.725 263.84 49.0785 263.986 49.4469 263.986C49.8152 263.986 50.1687 263.84 50.4296 263.581C50.6906 263.32 50.8368 262.966 50.8368 262.598C50.8368 262.23 50.6906 261.876 50.4296 261.615L49.8559 261.041C48.4807 259.668 48.4789 257.438 49.854 256.063C50.1131 255.804 50.4667 255.657 50.835 255.657C51.2033 255.657 51.5549 255.804 51.8159 256.063L56.2412 260.494C56.9279 261.182 57.3147 262.115 57.3147 263.088Z" fill="white" fill-opacity="0.1"/>
<defs>
<filter id="filter0_d_3241_12791" x="39.8428" y="75.1836" width="400.299" height="297.884" filterUnits="userSpaceOnUse" color-interpolation-filters="sRGB">
<feFlood flood-opacity="0" result="BackgroundImageFix"/>
<feColorMatrix in="SourceAlpha" type="matrix" values="0 0 0 0 0 0 0 0 0 0 0 0 0 0 0 0 0 0 127 0" result="hardAlpha"/>
<feOffset dy="6.48485"/>
<feGaussianBlur stdDeviation="2.57078"/>
<feComposite in2="hardAlpha" operator="out"/>
<feColorMatrix type="matrix" values="0 0 0 0 0 0 0 0 0 0 0 0 0 0 0 0 0 0 1 0"/>
<feBlend mode="normal" in2="BackgroundImageFix" result="effect1_dropShadow_3241_12791"/>
<feBlend mode="normal" in="SourceGraphic" in2="effect1_dropShadow_3241_12791" result="shape"/>
</filter>
<filter id="filter1_d_3241_12791" x="150.13" y="91.4009" width="271.748" height="257.541" filterUnits="userSpaceOnUse" color-interpolation-filters="sRGB">
<feFlood flood-opacity="0" result="BackgroundImageFix"/>
<feColorMatrix in="SourceAlpha" type="matrix" values="0 0 0 0 0 0 0 0 0 0 0 0 0 0 0 0 0 0 127 0" result="hardAlpha"/>
<feOffset dy="1.85281"/>
<feGaussianBlur stdDeviation="3.47403"/>
<feComposite in2="hardAlpha" operator="out"/>
<feColorMatrix type="matrix" values="0 0 0 0 0 0 0 0 0 0 0 0 0 0 0 0 0 0 1 0"/>
<feBlend mode="normal" in2="BackgroundImageFix" result="effect1_dropShadow_3241_12791"/>
<feBlend mode="normal" in="SourceGraphic" in2="effect1_dropShadow_3241_12791" result="shape"/>
</filter>
<filter id="filter2_d_3241_12791" x="43.1316" y="2" width="356.206" height="55.5838" filterUnits="userSpaceOnUse" color-interpolation-filters="sRGB">
<feFlood flood-opacity="0" result="BackgroundImageFix"/>
<feColorMatrix in="SourceAlpha" type="matrix" values="0 0 0 0 0 0 0 0 0 0 0 0 0 0 0 0 0 0 127 0" result="hardAlpha"/>
<feOffset dy="6.48485"/>
<feGaussianBlur stdDeviation="0.926407"/>
<feComposite in2="hardAlpha" operator="out"/>
<feColorMatrix type="matrix" values="0 0 0 0 0 0 0 0 0 0 0 0 0 0 0 0 0 0 1 0"/>
<feBlend mode="normal" in2="BackgroundImageFix" result="effect1_dropShadow_3241_12791"/>
<feBlend mode="normal" in="SourceGraphic" in2="effect1_dropShadow_3241_12791" result="shape"/>
</filter>
<filter id="filter3_d_3241_12791" x="38.7774" y="0.425108" width="364.914" height="59.6599" filterUnits="userSpaceOnUse" color-interpolation-filters="sRGB">
<feFlood flood-opacity="0" result="BackgroundImageFix"/>
<feColorMatrix in="SourceAlpha" type="matrix" values="0 0 0 0 0 0 0 0 0 0 0 0 0 0 0 0 0 0 127 0" result="hardAlpha"/>
<feOffset dy="4.63203"/>
<feGaussianBlur stdDeviation="3.10346"/>
<feComposite in2="hardAlpha" operator="out"/>
<feColorMatrix type="matrix" values="0 0 0 0 0 0 0 0 0 0 0 0 0 0 0 0 0 0 0.25 0"/>
<feBlend mode="normal" in2="BackgroundImageFix" result="effect1_dropShadow_3241_12791"/>
<feBlend mode="normal" in="SourceGraphic" in2="effect1_dropShadow_3241_12791" result="shape"/>
</filter>
<filter id="filter4_d_3241_12791" x="0.0519481" y="148.366" width="141.74" height="69.482" filterUnits="userSpaceOnUse" color-interpolation-filters="sRGB">
<feFlood flood-opacity="0" result="BackgroundImageFix"/>
<feColorMatrix in="SourceAlpha" type="matrix" values="0 0 0 0 0 0 0 0 0 0 0 0 0 0 0 0 0 0 127 0" result="hardAlpha"/>
<feOffset dy="1.85281"/>
<feGaussianBlur stdDeviation="3.47403"/>
<feComposite in2="hardAlpha" operator="out"/>
<feColorMatrix type="matrix" values="0 0 0 0 0 0 0 0 0 0 0 0 0 0 0 0 0 0 1 0"/>
<feBlend mode="normal" in2="BackgroundImageFix" result="effect1_dropShadow_3241_12791"/>
<feBlend mode="normal" in="SourceGraphic" in2="effect1_dropShadow_3241_12791" result="shape"/>
</filter>
<filter id="filter5_d_3241_12791" x="0.966011" y="220.635" width="141.74" height="69.482" filterUnits="userSpaceOnUse" color-interpolation-filters="sRGB">
<feFlood flood-opacity="0" result="BackgroundImageFix"/>
<feColorMatrix in="SourceAlpha" type="matrix" values="0 0 0 0 0 0 0 0 0 0 0 0 0 0 0 0 0 0 127 0" result="hardAlpha"/>
<feOffset dy="1.85281"/>
<feGaussianBlur stdDeviation="3.47403"/>
<feComposite in2="hardAlpha" operator="out"/>
<feColorMatrix type="matrix" values="0 0 0 0 0 0 0 0 0 0 0 0 0 0 0 0 0 0 1 0"/>
<feBlend mode="normal" in2="BackgroundImageFix" result="effect1_dropShadow_3241_12791"/>
<feBlend mode="normal" in="SourceGraphic" in2="effect1_dropShadow_3241_12791" result="shape"/>
</filter>
</defs>
</svg>
